<mxfile host="Electron" modified="2023-11-26T04:39:28.602Z" agent="Mozilla/5.0 (Windows NT 10.0; Win64; x64) AppleWebKit/537.36 (KHTML, like Gecko) draw.io/22.0.3 Chrome/114.0.5735.289 Electron/25.8.4 Safari/537.36" etag="TMdQUWStc6cVbCjy1Wls" version="22.0.3" type="device">
  <diagram name="Page-1" id="PpOXiOs3TZEa0PYQITlw">
    <mxGraphModel dx="1494" dy="1654" grid="1" gridSize="10" guides="1" tooltips="1" connect="1" arrows="1" fold="1" page="1" pageScale="1" pageWidth="5000" pageHeight="5000" math="0" shadow="0">
      <root>
        <mxCell id="0" />
        <mxCell id="1" parent="0" />
        <mxCell id="IpfHq9KAUWF6J69-SZQJ-8" style="edgeStyle=orthogonalEdgeStyle;rounded=0;orthogonalLoop=1;jettySize=auto;html=1;exitX=0.75;exitY=1;exitDx=0;exitDy=0;entryX=0;entryY=0.5;entryDx=0;entryDy=0;endArrow=none;endFill=0;fontStyle=1" parent="1" source="YOeL28a4dyn9BFeRwTe--1" target="YOeL28a4dyn9BFeRwTe--6" edge="1">
          <mxGeometry relative="1" as="geometry" />
        </mxCell>
        <mxCell id="SheLjhUKQ4-WKlLZxXz--102" value="1" style="edgeLabel;html=1;align=center;verticalAlign=middle;resizable=0;points=[];fontSize=26;fontFamily=Helvetica;fontColor=default;fontStyle=1" parent="IpfHq9KAUWF6J69-SZQJ-8" vertex="1" connectable="0">
          <mxGeometry x="0.7722" y="4" relative="1" as="geometry">
            <mxPoint as="offset" />
          </mxGeometry>
        </mxCell>
        <mxCell id="SheLjhUKQ4-WKlLZxXz--6" style="edgeStyle=elbowEdgeStyle;shape=connector;rounded=0;orthogonalLoop=1;jettySize=auto;html=1;labelBackgroundColor=default;strokeColor=default;align=center;verticalAlign=middle;fontFamily=Helvetica;fontSize=11;fontColor=default;endArrow=none;endFill=0;elbow=vertical;fontStyle=1" parent="1" source="YOeL28a4dyn9BFeRwTe--1" target="SheLjhUKQ4-WKlLZxXz--1" edge="1">
          <mxGeometry relative="1" as="geometry">
            <Array as="points">
              <mxPoint x="1880" y="1530" />
            </Array>
          </mxGeometry>
        </mxCell>
        <mxCell id="SheLjhUKQ4-WKlLZxXz--7" style="edgeStyle=elbowEdgeStyle;shape=connector;rounded=0;orthogonalLoop=1;jettySize=auto;html=1;labelBackgroundColor=default;strokeColor=default;align=center;verticalAlign=middle;fontFamily=Helvetica;fontSize=11;fontColor=default;endArrow=none;endFill=0;elbow=vertical;fontStyle=1" parent="1" source="YOeL28a4dyn9BFeRwTe--1" target="SheLjhUKQ4-WKlLZxXz--5" edge="1">
          <mxGeometry relative="1" as="geometry">
            <Array as="points">
              <mxPoint x="1890" y="1530" />
            </Array>
          </mxGeometry>
        </mxCell>
        <mxCell id="SheLjhUKQ4-WKlLZxXz--8" style="edgeStyle=elbowEdgeStyle;shape=connector;rounded=0;orthogonalLoop=1;jettySize=auto;html=1;labelBackgroundColor=default;strokeColor=default;align=center;verticalAlign=middle;fontFamily=Helvetica;fontSize=11;fontColor=default;endArrow=none;endFill=0;elbow=vertical;fontStyle=1" parent="1" source="YOeL28a4dyn9BFeRwTe--1" target="SheLjhUKQ4-WKlLZxXz--2" edge="1">
          <mxGeometry relative="1" as="geometry" />
        </mxCell>
        <mxCell id="YOeL28a4dyn9BFeRwTe--1" value="&lt;span&gt;&lt;font style=&quot;font-size: 26px;&quot;&gt;User&lt;/font&gt;&lt;/span&gt;" style="rounded=0;whiteSpace=wrap;html=1;fontStyle=1" parent="1" vertex="1">
          <mxGeometry x="1940" y="1860" width="120" height="60" as="geometry" />
        </mxCell>
        <mxCell id="YOeL28a4dyn9BFeRwTe--51" style="edgeStyle=orthogonalEdgeStyle;rounded=0;orthogonalLoop=1;jettySize=auto;html=1;exitX=0.75;exitY=1;exitDx=0;exitDy=0;entryX=0;entryY=0.5;entryDx=0;entryDy=0;endArrow=none;endFill=0;fontStyle=1;shape=link;" parent="1" source="YOeL28a4dyn9BFeRwTe--2" target="YOeL28a4dyn9BFeRwTe--11" edge="1">
          <mxGeometry relative="1" as="geometry" />
        </mxCell>
        <mxCell id="SheLjhUKQ4-WKlLZxXz--107" value="N" style="edgeLabel;html=1;align=center;verticalAlign=middle;resizable=0;points=[];fontSize=26;fontFamily=Helvetica;fontColor=default;fontStyle=1" parent="YOeL28a4dyn9BFeRwTe--51" vertex="1" connectable="0">
          <mxGeometry x="0.7167" relative="1" as="geometry">
            <mxPoint as="offset" />
          </mxGeometry>
        </mxCell>
        <mxCell id="SheLjhUKQ4-WKlLZxXz--29" style="edgeStyle=orthogonalEdgeStyle;shape=connector;rounded=0;orthogonalLoop=1;jettySize=auto;html=1;exitX=0.5;exitY=1;exitDx=0;exitDy=0;labelBackgroundColor=default;strokeColor=default;align=center;verticalAlign=middle;fontFamily=Helvetica;fontSize=11;fontColor=default;endArrow=none;endFill=0;fontStyle=1" parent="1" source="YOeL28a4dyn9BFeRwTe--2" target="SheLjhUKQ4-WKlLZxXz--25" edge="1">
          <mxGeometry relative="1" as="geometry" />
        </mxCell>
        <mxCell id="syEBDBhTTKM-WJqhAVIK-2" style="edgeStyle=orthogonalEdgeStyle;rounded=0;orthogonalLoop=1;jettySize=auto;html=1;entryX=0;entryY=0.5;entryDx=0;entryDy=0;shape=link;" edge="1" parent="1" source="YOeL28a4dyn9BFeRwTe--2" target="syEBDBhTTKM-WJqhAVIK-1">
          <mxGeometry relative="1" as="geometry">
            <Array as="points">
              <mxPoint x="2390" y="1890" />
              <mxPoint x="2390" y="1990" />
            </Array>
          </mxGeometry>
        </mxCell>
        <mxCell id="syEBDBhTTKM-WJqhAVIK-5" value="&lt;font style=&quot;font-size: 20px;&quot;&gt;&lt;b&gt;1&lt;/b&gt;&lt;/font&gt;" style="edgeLabel;html=1;align=center;verticalAlign=middle;resizable=0;points=[];" vertex="1" connectable="0" parent="syEBDBhTTKM-WJqhAVIK-2">
          <mxGeometry x="0.8429" y="1" relative="1" as="geometry">
            <mxPoint as="offset" />
          </mxGeometry>
        </mxCell>
        <mxCell id="YOeL28a4dyn9BFeRwTe--2" value="&lt;span&gt;&lt;font style=&quot;font-size: 26px;&quot;&gt;Ticket&lt;/font&gt;&lt;/span&gt;" style="rounded=0;whiteSpace=wrap;html=1;fontStyle=1" parent="1" vertex="1">
          <mxGeometry x="2180" y="1860" width="120" height="60" as="geometry" />
        </mxCell>
        <mxCell id="YOeL28a4dyn9BFeRwTe--53" style="edgeStyle=orthogonalEdgeStyle;rounded=0;orthogonalLoop=1;jettySize=auto;html=1;exitX=0.75;exitY=1;exitDx=0;exitDy=0;entryX=0;entryY=0.5;entryDx=0;entryDy=0;endArrow=none;endFill=0;fontStyle=1;shape=link;" parent="1" source="YOeL28a4dyn9BFeRwTe--3" target="YOeL28a4dyn9BFeRwTe--17" edge="1">
          <mxGeometry relative="1" as="geometry" />
        </mxCell>
        <mxCell id="SheLjhUKQ4-WKlLZxXz--109" value="1" style="edgeLabel;html=1;align=center;verticalAlign=middle;resizable=0;points=[];fontSize=26;fontFamily=Helvetica;fontColor=default;fontStyle=1" parent="YOeL28a4dyn9BFeRwTe--53" vertex="1" connectable="0">
          <mxGeometry x="0.787" relative="1" as="geometry">
            <mxPoint as="offset" />
          </mxGeometry>
        </mxCell>
        <mxCell id="YOeL28a4dyn9BFeRwTe--67" style="edgeStyle=orthogonalEdgeStyle;rounded=0;orthogonalLoop=1;jettySize=auto;html=1;exitX=0.5;exitY=1;exitDx=0;exitDy=0;entryX=1;entryY=0.5;entryDx=0;entryDy=0;endArrow=none;endFill=0;fontStyle=1;shape=link;" parent="1" source="YOeL28a4dyn9BFeRwTe--3" target="YOeL28a4dyn9BFeRwTe--56" edge="1">
          <mxGeometry relative="1" as="geometry" />
        </mxCell>
        <mxCell id="SheLjhUKQ4-WKlLZxXz--33" style="edgeStyle=orthogonalEdgeStyle;shape=link;rounded=0;orthogonalLoop=1;jettySize=auto;html=1;exitX=0.75;exitY=0;exitDx=0;exitDy=0;entryX=0;entryY=0.5;entryDx=0;entryDy=0;labelBackgroundColor=default;strokeColor=default;align=center;verticalAlign=middle;fontFamily=Helvetica;fontSize=11;fontColor=default;endArrow=none;endFill=0;fontStyle=1" parent="1" source="YOeL28a4dyn9BFeRwTe--3" target="YOeL28a4dyn9BFeRwTe--21" edge="1">
          <mxGeometry relative="1" as="geometry" />
        </mxCell>
        <mxCell id="SheLjhUKQ4-WKlLZxXz--113" value="1" style="edgeLabel;html=1;align=center;verticalAlign=middle;resizable=0;points=[];fontSize=26;fontFamily=Helvetica;fontColor=default;fontStyle=1" parent="SheLjhUKQ4-WKlLZxXz--33" vertex="1" connectable="0">
          <mxGeometry x="0.8489" relative="1" as="geometry">
            <mxPoint as="offset" />
          </mxGeometry>
        </mxCell>
        <mxCell id="YOeL28a4dyn9BFeRwTe--3" value="&lt;span&gt;&lt;font style=&quot;font-size: 26px;&quot;&gt;Bus&lt;/font&gt;&lt;/span&gt;" style="rounded=0;whiteSpace=wrap;html=1;fontStyle=1" parent="1" vertex="1">
          <mxGeometry x="2420" y="1860" width="120" height="60" as="geometry" />
        </mxCell>
        <mxCell id="YOeL28a4dyn9BFeRwTe--66" style="edgeStyle=orthogonalEdgeStyle;rounded=0;orthogonalLoop=1;jettySize=auto;html=1;exitX=0.75;exitY=1;exitDx=0;exitDy=0;entryX=0.5;entryY=1;entryDx=0;entryDy=0;endArrow=none;endFill=0;fontStyle=1;shape=link;" parent="1" source="YOeL28a4dyn9BFeRwTe--4" target="YOeL28a4dyn9BFeRwTe--56" edge="1">
          <mxGeometry relative="1" as="geometry" />
        </mxCell>
        <mxCell id="SheLjhUKQ4-WKlLZxXz--116" value="1" style="edgeLabel;html=1;align=center;verticalAlign=middle;resizable=0;points=[];fontSize=26;fontFamily=Helvetica;fontColor=default;fontStyle=1" parent="YOeL28a4dyn9BFeRwTe--66" vertex="1" connectable="0">
          <mxGeometry x="0.8443" y="-94" relative="1" as="geometry">
            <mxPoint y="4" as="offset" />
          </mxGeometry>
        </mxCell>
        <mxCell id="SheLjhUKQ4-WKlLZxXz--118" value="1" style="edgeLabel;html=1;align=center;verticalAlign=middle;resizable=0;points=[];fontSize=26;fontFamily=Helvetica;fontColor=default;fontStyle=1" parent="YOeL28a4dyn9BFeRwTe--66" vertex="1" connectable="0">
          <mxGeometry x="0.8415" y="1" relative="1" as="geometry">
            <mxPoint as="offset" />
          </mxGeometry>
        </mxCell>
        <mxCell id="YOeL28a4dyn9BFeRwTe--4" value="&lt;span&gt;&lt;font style=&quot;font-size: 26px;&quot;&gt;BusSchedule&lt;br&gt;&lt;/font&gt;&lt;/span&gt;" style="rounded=0;whiteSpace=wrap;html=1;fontStyle=1" parent="1" vertex="1">
          <mxGeometry x="3270" y="1860" width="240" height="60" as="geometry" />
        </mxCell>
        <mxCell id="YOeL28a4dyn9BFeRwTe--5" value="&lt;span&gt;&lt;font style=&quot;font-size: 26px;&quot;&gt;Seat&lt;/font&gt;&lt;/span&gt;" style="rounded=0;whiteSpace=wrap;html=1;fontStyle=1" parent="1" vertex="1">
          <mxGeometry x="2830" y="1860" width="120" height="60" as="geometry" />
        </mxCell>
        <mxCell id="SheLjhUKQ4-WKlLZxXz--27" style="edgeStyle=orthogonalEdgeStyle;shape=link;rounded=0;orthogonalLoop=1;jettySize=auto;html=1;exitX=1;exitY=0.5;exitDx=0;exitDy=0;entryX=0;entryY=0.5;entryDx=0;entryDy=0;labelBackgroundColor=default;strokeColor=default;align=center;verticalAlign=middle;fontFamily=Helvetica;fontSize=11;fontColor=default;endArrow=none;endFill=0;fontStyle=1" parent="1" source="YOeL28a4dyn9BFeRwTe--6" target="YOeL28a4dyn9BFeRwTe--2" edge="1">
          <mxGeometry relative="1" as="geometry">
            <Array as="points">
              <mxPoint x="2160" y="2020" />
              <mxPoint x="2160" y="1890" />
            </Array>
          </mxGeometry>
        </mxCell>
        <mxCell id="SheLjhUKQ4-WKlLZxXz--101" value="N" style="edgeLabel;html=1;align=center;verticalAlign=middle;resizable=0;points=[];fontSize=26;fontFamily=Helvetica;fontColor=default;fontStyle=1" parent="SheLjhUKQ4-WKlLZxXz--27" vertex="1" connectable="0">
          <mxGeometry x="-0.8093" relative="1" as="geometry">
            <mxPoint as="offset" />
          </mxGeometry>
        </mxCell>
        <mxCell id="YOeL28a4dyn9BFeRwTe--6" value="&lt;font style=&quot;font-size: 26px;&quot;&gt;&lt;span&gt;Buys&lt;/span&gt;&lt;/font&gt;" style="rhombus;whiteSpace=wrap;html=1;fontStyle=1" parent="1" vertex="1">
          <mxGeometry x="2050" y="1970" width="100" height="100" as="geometry" />
        </mxCell>
        <mxCell id="YOeL28a4dyn9BFeRwTe--59" style="edgeStyle=orthogonalEdgeStyle;rounded=0;orthogonalLoop=1;jettySize=auto;html=1;exitX=1;exitY=0.5;exitDx=0;exitDy=0;entryX=0.25;entryY=1;entryDx=0;entryDy=0;endArrow=none;endFill=0;fontStyle=1;shape=link;" parent="1" source="YOeL28a4dyn9BFeRwTe--11" target="YOeL28a4dyn9BFeRwTe--3" edge="1">
          <mxGeometry relative="1" as="geometry" />
        </mxCell>
        <mxCell id="SheLjhUKQ4-WKlLZxXz--105" value="1" style="edgeLabel;html=1;align=center;verticalAlign=middle;resizable=0;points=[];fontSize=26;fontFamily=Helvetica;fontColor=default;fontStyle=1" parent="YOeL28a4dyn9BFeRwTe--59" vertex="1" connectable="0">
          <mxGeometry x="-0.7985" relative="1" as="geometry">
            <mxPoint as="offset" />
          </mxGeometry>
        </mxCell>
        <mxCell id="YOeL28a4dyn9BFeRwTe--11" value="&lt;font style=&quot;font-size: 26px;&quot;&gt;&lt;span&gt;For&lt;/span&gt;&lt;/font&gt;" style="rhombus;whiteSpace=wrap;html=1;fontStyle=1" parent="1" vertex="1">
          <mxGeometry x="2310" y="2050" width="100" height="100" as="geometry" />
        </mxCell>
        <mxCell id="YOeL28a4dyn9BFeRwTe--52" style="edgeStyle=orthogonalEdgeStyle;rounded=0;orthogonalLoop=1;jettySize=auto;html=1;exitX=1;exitY=0.5;exitDx=0;exitDy=0;entryX=0.5;entryY=1;entryDx=0;entryDy=0;endArrow=none;endFill=0;fontStyle=1;shape=link;" parent="1" source="YOeL28a4dyn9BFeRwTe--17" target="YOeL28a4dyn9BFeRwTe--4" edge="1">
          <mxGeometry relative="1" as="geometry" />
        </mxCell>
        <mxCell id="SheLjhUKQ4-WKlLZxXz--108" value="1" style="edgeLabel;html=1;align=center;verticalAlign=middle;resizable=0;points=[];fontSize=26;fontFamily=Helvetica;fontColor=default;fontStyle=1" parent="YOeL28a4dyn9BFeRwTe--52" vertex="1" connectable="0">
          <mxGeometry x="-0.9184" y="-1" relative="1" as="geometry">
            <mxPoint as="offset" />
          </mxGeometry>
        </mxCell>
        <mxCell id="YOeL28a4dyn9BFeRwTe--17" value="&lt;font style=&quot;font-size: 26px;&quot;&gt;&lt;span&gt;Schedule&lt;/span&gt;&lt;/font&gt;" style="rhombus;whiteSpace=wrap;html=1;fontStyle=1" parent="1" vertex="1">
          <mxGeometry x="2640" y="2130" width="140" height="140" as="geometry" />
        </mxCell>
        <mxCell id="SheLjhUKQ4-WKlLZxXz--44" style="edgeStyle=orthogonalEdgeStyle;shape=link;rounded=0;orthogonalLoop=1;jettySize=auto;html=1;exitX=1;exitY=0.5;exitDx=0;exitDy=0;entryX=0.25;entryY=0;entryDx=0;entryDy=0;labelBackgroundColor=default;strokeColor=default;align=center;verticalAlign=middle;fontFamily=Helvetica;fontSize=11;fontColor=default;endArrow=none;endFill=0;fontStyle=1" parent="1" source="YOeL28a4dyn9BFeRwTe--21" target="YOeL28a4dyn9BFeRwTe--5" edge="1">
          <mxGeometry relative="1" as="geometry" />
        </mxCell>
        <mxCell id="SheLjhUKQ4-WKlLZxXz--112" value="N" style="edgeLabel;html=1;align=center;verticalAlign=middle;resizable=0;points=[];fontSize=26;fontFamily=Helvetica;fontColor=default;fontStyle=1" parent="SheLjhUKQ4-WKlLZxXz--44" vertex="1" connectable="0">
          <mxGeometry x="-0.7043" y="-3" relative="1" as="geometry">
            <mxPoint as="offset" />
          </mxGeometry>
        </mxCell>
        <mxCell id="YOeL28a4dyn9BFeRwTe--21" value="&lt;font style=&quot;font-size: 26px;&quot;&gt;&lt;span&gt;SeatStatus&lt;/span&gt;&lt;/font&gt;" style="rhombus;whiteSpace=wrap;html=1;fontStyle=1" parent="1" vertex="1">
          <mxGeometry x="2600" y="1630" width="200" height="190" as="geometry" />
        </mxCell>
        <mxCell id="lG7G2x3EtYP6nLoqvDad-1" style="edgeStyle=orthogonalEdgeStyle;rounded=0;orthogonalLoop=1;jettySize=auto;html=1;exitX=0;exitY=0.5;exitDx=0;exitDy=0;entryX=0.5;entryY=1;entryDx=0;entryDy=0;endArrow=none;endFill=0;fontStyle=1" parent="1" source="YOeL28a4dyn9BFeRwTe--26" target="YOeL28a4dyn9BFeRwTe--1" edge="1">
          <mxGeometry relative="1" as="geometry" />
        </mxCell>
        <mxCell id="SheLjhUKQ4-WKlLZxXz--104" value="1" style="edgeLabel;html=1;align=center;verticalAlign=middle;resizable=0;points=[];fontSize=26;fontFamily=Helvetica;fontColor=default;fontStyle=1" parent="lG7G2x3EtYP6nLoqvDad-1" vertex="1" connectable="0">
          <mxGeometry x="-0.8775" y="-1" relative="1" as="geometry">
            <mxPoint as="offset" />
          </mxGeometry>
        </mxCell>
        <mxCell id="SheLjhUKQ4-WKlLZxXz--28" style="edgeStyle=orthogonalEdgeStyle;shape=link;rounded=0;orthogonalLoop=1;jettySize=auto;html=1;exitX=1;exitY=0.5;exitDx=0;exitDy=0;entryX=0.25;entryY=1;entryDx=0;entryDy=0;labelBackgroundColor=default;strokeColor=default;align=center;verticalAlign=middle;fontFamily=Helvetica;fontSize=11;fontColor=default;endArrow=none;endFill=0;fontStyle=1" parent="1" source="YOeL28a4dyn9BFeRwTe--26" target="YOeL28a4dyn9BFeRwTe--2" edge="1">
          <mxGeometry relative="1" as="geometry" />
        </mxCell>
        <mxCell id="SheLjhUKQ4-WKlLZxXz--103" value="N" style="edgeLabel;html=1;align=center;verticalAlign=middle;resizable=0;points=[];fontSize=26;fontFamily=Helvetica;fontColor=default;fontStyle=1" parent="SheLjhUKQ4-WKlLZxXz--28" vertex="1" connectable="0">
          <mxGeometry x="-0.8829" relative="1" as="geometry">
            <mxPoint as="offset" />
          </mxGeometry>
        </mxCell>
        <mxCell id="YOeL28a4dyn9BFeRwTe--26" value="&lt;font style=&quot;font-size: 26px;&quot;&gt;&lt;span&gt;Refund&lt;/span&gt;&lt;/font&gt;" style="rhombus;whiteSpace=wrap;html=1;fontStyle=1" parent="1" vertex="1">
          <mxGeometry x="2070" y="2190" width="120" height="120" as="geometry" />
        </mxCell>
        <mxCell id="YOeL28a4dyn9BFeRwTe--35" style="edgeStyle=orthogonalEdgeStyle;rounded=0;orthogonalLoop=1;jettySize=auto;html=1;exitX=1;exitY=0.5;exitDx=0;exitDy=0;entryX=0.5;entryY=1;entryDx=0;entryDy=0;endArrow=none;endFill=0;fontStyle=1" parent="1" source="YOeL28a4dyn9BFeRwTe--29" target="YOeL28a4dyn9BFeRwTe--33" edge="1">
          <mxGeometry relative="1" as="geometry" />
        </mxCell>
        <mxCell id="YOeL28a4dyn9BFeRwTe--29" value="&lt;span style=&quot;font-size: 26px;&quot;&gt;&lt;span&gt;General&lt;/span&gt;&lt;/span&gt;" style="rounded=0;whiteSpace=wrap;html=1;fontStyle=1" parent="1" vertex="1">
          <mxGeometry x="1410" y="1960" width="140" height="60" as="geometry" />
        </mxCell>
        <mxCell id="YOeL28a4dyn9BFeRwTe--36" style="edgeStyle=orthogonalEdgeStyle;rounded=0;orthogonalLoop=1;jettySize=auto;html=1;exitX=1;exitY=0.5;exitDx=0;exitDy=0;entryX=0;entryY=0.5;entryDx=0;entryDy=0;endArrow=none;endFill=0;fontStyle=1" parent="1" source="YOeL28a4dyn9BFeRwTe--30" target="YOeL28a4dyn9BFeRwTe--33" edge="1">
          <mxGeometry relative="1" as="geometry" />
        </mxCell>
        <mxCell id="YOeL28a4dyn9BFeRwTe--69" style="edgeStyle=orthogonalEdgeStyle;rounded=0;orthogonalLoop=1;jettySize=auto;html=1;exitX=0;exitY=0.5;exitDx=0;exitDy=0;entryX=0.5;entryY=0;entryDx=0;entryDy=0;endArrow=none;endFill=0;fontStyle=1;shape=link;" parent="1" source="YOeL28a4dyn9BFeRwTe--30" target="YOeL28a4dyn9BFeRwTe--56" edge="1">
          <mxGeometry relative="1" as="geometry" />
        </mxCell>
        <mxCell id="SheLjhUKQ4-WKlLZxXz--115" value="1" style="edgeLabel;html=1;align=center;verticalAlign=middle;resizable=0;points=[];fontSize=26;fontFamily=Helvetica;fontColor=default;fontStyle=1" parent="YOeL28a4dyn9BFeRwTe--69" vertex="1" connectable="0">
          <mxGeometry x="0.7547" y="-6" relative="1" as="geometry">
            <mxPoint x="6" as="offset" />
          </mxGeometry>
        </mxCell>
        <mxCell id="YOeL28a4dyn9BFeRwTe--30" value="&lt;span style=&quot;border-color: var(--border-color); font-size: 26px;&quot;&gt;Admin&lt;/span&gt;" style="rounded=0;whiteSpace=wrap;html=1;fontStyle=1" parent="1" vertex="1">
          <mxGeometry x="1410" y="1860" width="140" height="60" as="geometry" />
        </mxCell>
        <mxCell id="YOeL28a4dyn9BFeRwTe--38" style="edgeStyle=orthogonalEdgeStyle;rounded=0;orthogonalLoop=1;jettySize=auto;html=1;exitX=1;exitY=0.5;exitDx=0;exitDy=0;entryX=0.5;entryY=0;entryDx=0;entryDy=0;endArrow=none;endFill=0;fontStyle=1" parent="1" source="YOeL28a4dyn9BFeRwTe--31" target="YOeL28a4dyn9BFeRwTe--33" edge="1">
          <mxGeometry relative="1" as="geometry" />
        </mxCell>
        <mxCell id="YOeL28a4dyn9BFeRwTe--68" style="edgeStyle=orthogonalEdgeStyle;rounded=0;orthogonalLoop=1;jettySize=auto;html=1;exitX=0;exitY=0.5;exitDx=0;exitDy=0;entryX=0;entryY=0.5;entryDx=0;entryDy=0;endArrow=none;endFill=0;fontStyle=1;shape=link;" parent="1" source="YOeL28a4dyn9BFeRwTe--31" target="YOeL28a4dyn9BFeRwTe--56" edge="1">
          <mxGeometry relative="1" as="geometry">
            <Array as="points">
              <mxPoint x="1280" y="1790" />
              <mxPoint x="1280" y="2580" />
            </Array>
          </mxGeometry>
        </mxCell>
        <mxCell id="SheLjhUKQ4-WKlLZxXz--114" value="1" style="edgeLabel;html=1;align=center;verticalAlign=middle;resizable=0;points=[];fontSize=26;fontFamily=Helvetica;fontColor=default;fontStyle=1" parent="YOeL28a4dyn9BFeRwTe--68" vertex="1" connectable="0">
          <mxGeometry x="0.8634" relative="1" as="geometry">
            <mxPoint as="offset" />
          </mxGeometry>
        </mxCell>
        <mxCell id="YOeL28a4dyn9BFeRwTe--31" value="&lt;span style=&quot;border-color: var(--border-color); font-size: 26px;&quot;&gt;BusDriver&lt;/span&gt;" style="rounded=0;whiteSpace=wrap;html=1;fontStyle=1" parent="1" vertex="1">
          <mxGeometry x="1410" y="1760" width="140" height="60" as="geometry" />
        </mxCell>
        <mxCell id="YOeL28a4dyn9BFeRwTe--37" style="edgeStyle=orthogonalEdgeStyle;rounded=0;orthogonalLoop=1;jettySize=auto;html=1;exitX=1;exitY=0.5;exitDx=0;exitDy=0;entryX=0;entryY=0.5;entryDx=0;entryDy=0;endArrow=none;endFill=0;fontStyle=1" parent="1" source="YOeL28a4dyn9BFeRwTe--33" target="YOeL28a4dyn9BFeRwTe--1" edge="1">
          <mxGeometry relative="1" as="geometry" />
        </mxCell>
        <mxCell id="YOeL28a4dyn9BFeRwTe--33" value="&lt;font style=&quot;font-size: 26px;&quot;&gt;&lt;span&gt;O&lt;/span&gt;&lt;/font&gt;" style="ellipse;whiteSpace=wrap;html=1;aspect=fixed;fontStyle=1" parent="1" vertex="1">
          <mxGeometry x="1740" y="1850" width="80" height="80" as="geometry" />
        </mxCell>
        <mxCell id="YOeL28a4dyn9BFeRwTe--56" value="&lt;font style=&quot;font-size: 26px;&quot;&gt;&lt;span&gt;Assign&lt;/span&gt;&lt;/font&gt;" style="rhombus;whiteSpace=wrap;html=1;fontStyle=1" parent="1" vertex="1">
          <mxGeometry x="1770" y="2510" width="140" height="140" as="geometry" />
        </mxCell>
        <mxCell id="YOeL28a4dyn9BFeRwTe--64" style="edgeStyle=orthogonalEdgeStyle;rounded=0;orthogonalLoop=1;jettySize=auto;html=1;exitX=0.5;exitY=1;exitDx=0;exitDy=0;entryX=0;entryY=0.5;entryDx=0;entryDy=0;endArrow=none;endFill=0;fontStyle=1" parent="1" source="YOeL28a4dyn9BFeRwTe--62" target="YOeL28a4dyn9BFeRwTe--63" edge="1">
          <mxGeometry relative="1" as="geometry" />
        </mxCell>
        <mxCell id="SheLjhUKQ4-WKlLZxXz--110" value="N" style="edgeLabel;html=1;align=center;verticalAlign=middle;resizable=0;points=[];fontSize=26;fontFamily=Helvetica;fontColor=default;fontStyle=1" parent="YOeL28a4dyn9BFeRwTe--64" vertex="1" connectable="0">
          <mxGeometry x="0.8083" y="-1" relative="1" as="geometry">
            <mxPoint as="offset" />
          </mxGeometry>
        </mxCell>
        <mxCell id="YOeL28a4dyn9BFeRwTe--62" value="&lt;span&gt;&lt;font style=&quot;font-size: 26px;&quot;&gt;District&lt;/font&gt;&lt;/span&gt;" style="rounded=0;whiteSpace=wrap;html=1;fontStyle=1" parent="1" vertex="1">
          <mxGeometry x="3060" y="1860" width="120" height="60" as="geometry" />
        </mxCell>
        <mxCell id="YOeL28a4dyn9BFeRwTe--63" value="&lt;font style=&quot;font-size: 26px;&quot;&gt;&lt;span&gt;Route&lt;/span&gt;&lt;/font&gt;" style="rhombus;whiteSpace=wrap;html=1;fontStyle=1" parent="1" vertex="1">
          <mxGeometry x="3160" y="1970" width="140" height="140" as="geometry" />
        </mxCell>
        <mxCell id="YOeL28a4dyn9BFeRwTe--65" style="edgeStyle=orthogonalEdgeStyle;rounded=0;orthogonalLoop=1;jettySize=auto;html=1;exitX=1;exitY=0.5;exitDx=0;exitDy=0;entryX=0.333;entryY=1.025;entryDx=0;entryDy=0;entryPerimeter=0;endArrow=none;endFill=0;fontStyle=1;shape=link;" parent="1" source="YOeL28a4dyn9BFeRwTe--63" target="YOeL28a4dyn9BFeRwTe--4" edge="1">
          <mxGeometry relative="1" as="geometry" />
        </mxCell>
        <mxCell id="SheLjhUKQ4-WKlLZxXz--111" value="M" style="edgeLabel;html=1;align=center;verticalAlign=middle;resizable=0;points=[];fontSize=26;fontFamily=Helvetica;fontColor=default;fontStyle=1" parent="YOeL28a4dyn9BFeRwTe--65" vertex="1" connectable="0">
          <mxGeometry x="-0.7862" y="-2" relative="1" as="geometry">
            <mxPoint as="offset" />
          </mxGeometry>
        </mxCell>
        <mxCell id="IpfHq9KAUWF6J69-SZQJ-2" style="edgeStyle=orthogonalEdgeStyle;rounded=0;orthogonalLoop=1;jettySize=auto;html=1;exitX=1;exitY=0.5;exitDx=0;exitDy=0;entryX=0.25;entryY=0;entryDx=0;entryDy=0;endArrow=none;endFill=0;fontStyle=1" parent="1" source="IpfHq9KAUWF6J69-SZQJ-1" target="YOeL28a4dyn9BFeRwTe--1" edge="1">
          <mxGeometry relative="1" as="geometry" />
        </mxCell>
        <mxCell id="SheLjhUKQ4-WKlLZxXz--98" value="M" style="edgeLabel;html=1;align=center;verticalAlign=middle;resizable=0;points=[];fontSize=26;fontFamily=Helvetica;fontColor=default;fontStyle=1" parent="IpfHq9KAUWF6J69-SZQJ-2" vertex="1" connectable="0">
          <mxGeometry x="-0.7832" y="-6" relative="1" as="geometry">
            <mxPoint x="3" y="-6" as="offset" />
          </mxGeometry>
        </mxCell>
        <mxCell id="IpfHq9KAUWF6J69-SZQJ-3" style="edgeStyle=orthogonalEdgeStyle;rounded=0;orthogonalLoop=1;jettySize=auto;html=1;exitX=0;exitY=0.5;exitDx=0;exitDy=0;entryX=0.5;entryY=0;entryDx=0;entryDy=0;endArrow=none;endFill=0;fontStyle=1" parent="1" source="IpfHq9KAUWF6J69-SZQJ-1" target="YOeL28a4dyn9BFeRwTe--31" edge="1">
          <mxGeometry relative="1" as="geometry" />
        </mxCell>
        <mxCell id="SheLjhUKQ4-WKlLZxXz--97" value="N" style="edgeLabel;html=1;align=center;verticalAlign=middle;resizable=0;points=[];fontSize=26;fontFamily=Helvetica;fontColor=default;fontStyle=1" parent="IpfHq9KAUWF6J69-SZQJ-3" vertex="1" connectable="0">
          <mxGeometry x="-0.7247" relative="1" as="geometry">
            <mxPoint as="offset" />
          </mxGeometry>
        </mxCell>
        <mxCell id="IpfHq9KAUWF6J69-SZQJ-1" value="&lt;span style=&quot;font-size: 26px;&quot;&gt;&lt;span&gt;DriverReview&lt;/span&gt;&lt;/span&gt;" style="rhombus;whiteSpace=wrap;html=1;fontStyle=1" parent="1" vertex="1">
          <mxGeometry x="1590" y="1550" width="250" height="200" as="geometry" />
        </mxCell>
        <mxCell id="IpfHq9KAUWF6J69-SZQJ-7" style="edgeStyle=orthogonalEdgeStyle;rounded=0;orthogonalLoop=1;jettySize=auto;html=1;exitX=1;exitY=0.5;exitDx=0;exitDy=0;entryX=0.25;entryY=0;entryDx=0;entryDy=0;endArrow=none;endFill=0;fontStyle=1" parent="1" source="IpfHq9KAUWF6J69-SZQJ-4" target="YOeL28a4dyn9BFeRwTe--3" edge="1">
          <mxGeometry relative="1" as="geometry" />
        </mxCell>
        <mxCell id="SheLjhUKQ4-WKlLZxXz--100" value="M" style="edgeLabel;html=1;align=center;verticalAlign=middle;resizable=0;points=[];fontSize=26;fontFamily=Helvetica;fontColor=default;fontStyle=1" parent="IpfHq9KAUWF6J69-SZQJ-7" vertex="1" connectable="0">
          <mxGeometry x="-0.7064" y="-2" relative="1" as="geometry">
            <mxPoint as="offset" />
          </mxGeometry>
        </mxCell>
        <mxCell id="lG7G2x3EtYP6nLoqvDad-5" style="edgeStyle=orthogonalEdgeStyle;shape=connector;rounded=0;orthogonalLoop=1;jettySize=auto;html=1;exitX=0;exitY=0.5;exitDx=0;exitDy=0;entryX=0.75;entryY=0;entryDx=0;entryDy=0;labelBackgroundColor=default;strokeColor=default;align=center;verticalAlign=middle;fontFamily=Helvetica;fontSize=11;fontColor=default;endArrow=none;endFill=0;fontStyle=1" parent="1" source="IpfHq9KAUWF6J69-SZQJ-4" target="YOeL28a4dyn9BFeRwTe--1" edge="1">
          <mxGeometry relative="1" as="geometry" />
        </mxCell>
        <mxCell id="SheLjhUKQ4-WKlLZxXz--99" value="N" style="edgeLabel;html=1;align=center;verticalAlign=middle;resizable=0;points=[];fontSize=26;fontFamily=Helvetica;fontColor=default;fontStyle=1" parent="lG7G2x3EtYP6nLoqvDad-5" vertex="1" connectable="0">
          <mxGeometry x="-0.6457" relative="1" as="geometry">
            <mxPoint as="offset" />
          </mxGeometry>
        </mxCell>
        <mxCell id="SheLjhUKQ4-WKlLZxXz--93" style="edgeStyle=orthogonalEdgeStyle;shape=connector;rounded=0;orthogonalLoop=1;jettySize=auto;html=1;exitX=0.5;exitY=0;exitDx=0;exitDy=0;entryX=0.5;entryY=1;entryDx=0;entryDy=0;labelBackgroundColor=default;strokeColor=default;align=center;verticalAlign=middle;fontFamily=Helvetica;fontSize=11;fontColor=default;endArrow=none;endFill=0;fontStyle=1" parent="1" source="IpfHq9KAUWF6J69-SZQJ-4" target="SheLjhUKQ4-WKlLZxXz--81" edge="1">
          <mxGeometry relative="1" as="geometry" />
        </mxCell>
        <mxCell id="IpfHq9KAUWF6J69-SZQJ-4" value="&lt;span style=&quot;font-size: 26px;&quot;&gt;&lt;span&gt;BusReview&lt;/span&gt;&lt;/span&gt;" style="rhombus;whiteSpace=wrap;html=1;fontStyle=1" parent="1" vertex="1">
          <mxGeometry x="2120" y="1550" width="250" height="200" as="geometry" />
        </mxCell>
        <mxCell id="SheLjhUKQ4-WKlLZxXz--1" value="&lt;u&gt;&lt;font style=&quot;font-size: 15px;&quot;&gt;user_id&lt;/font&gt;&lt;/u&gt;" style="rounded=1;whiteSpace=wrap;html=1;arcSize=60;fontFamily=Helvetica;fontSize=11;fontColor=default;fontStyle=1" parent="1" vertex="1">
          <mxGeometry x="1680" y="1140" width="120" height="60" as="geometry" />
        </mxCell>
        <mxCell id="SheLjhUKQ4-WKlLZxXz--2" value="&lt;font style=&quot;font-size: 15px;&quot;&gt;email&lt;/font&gt;" style="rounded=1;whiteSpace=wrap;html=1;arcSize=60;fontFamily=Helvetica;fontSize=11;fontColor=default;fontStyle=1" parent="1" vertex="1">
          <mxGeometry x="1820" y="1140" width="120" height="60" as="geometry" />
        </mxCell>
        <mxCell id="hOqGwdR3IB_KNojTuP-n-14" style="edgeStyle=orthogonalEdgeStyle;shape=connector;rounded=0;orthogonalLoop=1;jettySize=auto;html=1;exitX=0.5;exitY=1;exitDx=0;exitDy=0;entryX=0.5;entryY=0;entryDx=0;entryDy=0;labelBackgroundColor=default;strokeColor=default;align=center;verticalAlign=middle;fontFamily=Helvetica;fontSize=11;fontColor=default;endArrow=none;endFill=0;" parent="1" source="SheLjhUKQ4-WKlLZxXz--3" target="YOeL28a4dyn9BFeRwTe--1" edge="1">
          <mxGeometry relative="1" as="geometry">
            <Array as="points">
              <mxPoint x="2030" y="1530" />
              <mxPoint x="2000" y="1530" />
            </Array>
          </mxGeometry>
        </mxCell>
        <mxCell id="SheLjhUKQ4-WKlLZxXz--3" value="&lt;font style=&quot;font-size: 15px;&quot;&gt;password&lt;/font&gt;" style="rounded=1;whiteSpace=wrap;html=1;arcSize=60;fontFamily=Helvetica;fontSize=11;fontColor=default;fontStyle=1" parent="1" vertex="1">
          <mxGeometry x="1970" y="1190" width="120" height="60" as="geometry" />
        </mxCell>
        <mxCell id="SheLjhUKQ4-WKlLZxXz--120" style="edgeStyle=orthogonalEdgeStyle;shape=connector;rounded=0;orthogonalLoop=1;jettySize=auto;html=1;exitX=0.5;exitY=1;exitDx=0;exitDy=0;entryX=0.5;entryY=0;entryDx=0;entryDy=0;labelBackgroundColor=default;strokeColor=default;align=center;verticalAlign=middle;fontFamily=Helvetica;fontSize=11;fontColor=default;endArrow=none;endFill=0;" parent="1" source="hOqGwdR3IB_KNojTuP-n-27" target="YOeL28a4dyn9BFeRwTe--1" edge="1">
          <mxGeometry relative="1" as="geometry">
            <Array as="points">
              <mxPoint x="2170" y="1240" />
              <mxPoint x="2090" y="1240" />
              <mxPoint x="2090" y="1530" />
              <mxPoint x="2000" y="1530" />
            </Array>
            <mxPoint x="2169.9999999999995" y="1220" as="sourcePoint" />
          </mxGeometry>
        </mxCell>
        <mxCell id="SheLjhUKQ4-WKlLZxXz--5" value="&lt;font style=&quot;font-size: 15px;&quot;&gt;Name&lt;/font&gt;" style="rounded=1;whiteSpace=wrap;html=1;arcSize=60;fontFamily=Helvetica;fontSize=11;fontColor=default;fontStyle=1" parent="1" vertex="1">
          <mxGeometry x="1750" y="1250" width="120" height="60" as="geometry" />
        </mxCell>
        <mxCell id="SheLjhUKQ4-WKlLZxXz--24" style="edgeStyle=orthogonalEdgeStyle;shape=connector;rounded=0;orthogonalLoop=1;jettySize=auto;html=1;exitX=1;exitY=0.5;exitDx=0;exitDy=0;entryX=0.25;entryY=0;entryDx=0;entryDy=0;labelBackgroundColor=default;strokeColor=default;align=center;verticalAlign=middle;fontFamily=Helvetica;fontSize=11;fontColor=default;endArrow=none;endFill=0;fontStyle=1" parent="1" source="SheLjhUKQ4-WKlLZxXz--16" target="YOeL28a4dyn9BFeRwTe--31" edge="1">
          <mxGeometry relative="1" as="geometry" />
        </mxCell>
        <mxCell id="SheLjhUKQ4-WKlLZxXz--16" value="&lt;font style=&quot;font-size: 15px;&quot;&gt;license_no&lt;/font&gt;" style="rounded=1;whiteSpace=wrap;html=1;arcSize=60;fontFamily=Helvetica;fontSize=11;fontColor=default;fontStyle=1" parent="1" vertex="1">
          <mxGeometry x="1230" y="1200" width="120" height="60" as="geometry" />
        </mxCell>
        <mxCell id="SheLjhUKQ4-WKlLZxXz--22" style="edgeStyle=orthogonalEdgeStyle;shape=connector;rounded=0;orthogonalLoop=1;jettySize=auto;html=1;exitX=0.5;exitY=1;exitDx=0;exitDy=0;entryX=0;entryY=0.25;entryDx=0;entryDy=0;labelBackgroundColor=default;strokeColor=default;align=center;verticalAlign=middle;fontFamily=Helvetica;fontSize=11;fontColor=default;endArrow=none;endFill=0;fontStyle=1" parent="1" source="SheLjhUKQ4-WKlLZxXz--18" target="YOeL28a4dyn9BFeRwTe--31" edge="1">
          <mxGeometry relative="1" as="geometry" />
        </mxCell>
        <mxCell id="SheLjhUKQ4-WKlLZxXz--18" value="&lt;font style=&quot;font-size: 15px;&quot;&gt;license_expire&lt;/font&gt;" style="rounded=1;whiteSpace=wrap;html=1;arcSize=60;fontFamily=Helvetica;fontSize=11;fontColor=default;fontStyle=1" parent="1" vertex="1">
          <mxGeometry x="1230" y="1360" width="120" height="60" as="geometry" />
        </mxCell>
        <mxCell id="SheLjhUKQ4-WKlLZxXz--25" value="&lt;font style=&quot;font-size: 15px;&quot;&gt;ticket_id&lt;/font&gt;" style="rounded=1;whiteSpace=wrap;html=1;arcSize=60;fontFamily=Helvetica;fontSize=11;fontColor=default;fontStyle=5" parent="1" vertex="1">
          <mxGeometry x="2200" y="2420" width="120" height="60" as="geometry" />
        </mxCell>
        <mxCell id="SheLjhUKQ4-WKlLZxXz--30" style="edgeStyle=orthogonalEdgeStyle;shape=connector;rounded=0;orthogonalLoop=1;jettySize=auto;html=1;exitX=0.5;exitY=0;exitDx=0;exitDy=0;labelBackgroundColor=default;strokeColor=default;align=center;verticalAlign=middle;fontFamily=Helvetica;fontSize=11;fontColor=default;endArrow=none;endFill=0;fontStyle=1" parent="1" source="SheLjhUKQ4-WKlLZxXz--26" edge="1">
          <mxGeometry relative="1" as="geometry">
            <mxPoint x="2240" y="1920" as="targetPoint" />
          </mxGeometry>
        </mxCell>
        <mxCell id="SheLjhUKQ4-WKlLZxXz--26" value="&lt;font style=&quot;font-size: 15px;&quot;&gt;purchase_date&lt;/font&gt;" style="rounded=1;whiteSpace=wrap;html=1;arcSize=60;fontFamily=Helvetica;fontSize=11;fontColor=default;fontStyle=1" parent="1" vertex="1">
          <mxGeometry x="2340" y="2420" width="120" height="60" as="geometry" />
        </mxCell>
        <mxCell id="SheLjhUKQ4-WKlLZxXz--38" style="edgeStyle=orthogonalEdgeStyle;shape=connector;rounded=0;orthogonalLoop=1;jettySize=auto;html=1;exitX=0.5;exitY=1;exitDx=0;exitDy=0;entryX=0.5;entryY=0;entryDx=0;entryDy=0;labelBackgroundColor=default;strokeColor=default;align=center;verticalAlign=middle;fontFamily=Helvetica;fontSize=11;fontColor=default;endArrow=none;endFill=0;fontStyle=1" parent="1" source="SheLjhUKQ4-WKlLZxXz--35" target="YOeL28a4dyn9BFeRwTe--3" edge="1">
          <mxGeometry relative="1" as="geometry" />
        </mxCell>
        <mxCell id="SheLjhUKQ4-WKlLZxXz--35" value="&lt;font style=&quot;font-size: 15px;&quot;&gt;bus_id&lt;/font&gt;" style="rounded=1;whiteSpace=wrap;html=1;arcSize=60;fontFamily=Helvetica;fontSize=11;fontColor=default;fontStyle=5" parent="1" vertex="1">
          <mxGeometry x="2420" y="1130" width="120" height="60" as="geometry" />
        </mxCell>
        <mxCell id="SheLjhUKQ4-WKlLZxXz--39" style="edgeStyle=orthogonalEdgeStyle;shape=connector;rounded=0;orthogonalLoop=1;jettySize=auto;html=1;exitX=0.5;exitY=1;exitDx=0;exitDy=0;labelBackgroundColor=default;strokeColor=default;align=center;verticalAlign=middle;fontFamily=Helvetica;fontSize=11;fontColor=default;endArrow=none;endFill=0;fontStyle=1" parent="1" source="SheLjhUKQ4-WKlLZxXz--36" edge="1">
          <mxGeometry relative="1" as="geometry">
            <mxPoint x="2480" y="1850" as="targetPoint" />
          </mxGeometry>
        </mxCell>
        <mxCell id="SheLjhUKQ4-WKlLZxXz--36" value="&lt;font style=&quot;font-size: 15px;&quot;&gt;bus_no&lt;/font&gt;" style="rounded=1;whiteSpace=wrap;html=1;arcSize=60;fontFamily=Helvetica;fontSize=11;fontColor=default;fontStyle=1" parent="1" vertex="1">
          <mxGeometry x="2560" y="1130" width="120" height="60" as="geometry" />
        </mxCell>
        <mxCell id="SheLjhUKQ4-WKlLZxXz--40" style="edgeStyle=orthogonalEdgeStyle;shape=connector;rounded=0;orthogonalLoop=1;jettySize=auto;html=1;exitX=0.5;exitY=1;exitDx=0;exitDy=0;entryX=0.5;entryY=0;entryDx=0;entryDy=0;labelBackgroundColor=default;strokeColor=default;align=center;verticalAlign=middle;fontFamily=Helvetica;fontSize=11;fontColor=default;endArrow=none;endFill=0;fontStyle=1" parent="1" source="SheLjhUKQ4-WKlLZxXz--37" target="YOeL28a4dyn9BFeRwTe--3" edge="1">
          <mxGeometry relative="1" as="geometry">
            <Array as="points">
              <mxPoint x="2760" y="1570" />
              <mxPoint x="2480" y="1570" />
            </Array>
          </mxGeometry>
        </mxCell>
        <mxCell id="SheLjhUKQ4-WKlLZxXz--37" value="&lt;font style=&quot;font-size: 15px;&quot;&gt;bus_type&lt;/font&gt;" style="rounded=1;whiteSpace=wrap;html=1;arcSize=60;fontFamily=Helvetica;fontSize=11;fontColor=default;fontStyle=1" parent="1" vertex="1">
          <mxGeometry x="2700" y="1130" width="120" height="60" as="geometry" />
        </mxCell>
        <mxCell id="SheLjhUKQ4-WKlLZxXz--45" style="edgeStyle=orthogonalEdgeStyle;shape=connector;rounded=0;orthogonalLoop=1;jettySize=auto;html=1;exitX=0.5;exitY=1;exitDx=0;exitDy=0;labelBackgroundColor=default;strokeColor=default;align=center;verticalAlign=middle;fontFamily=Helvetica;fontSize=11;fontColor=default;endArrow=none;endFill=0;fontStyle=1" parent="1" source="SheLjhUKQ4-WKlLZxXz--41" target="YOeL28a4dyn9BFeRwTe--5" edge="1">
          <mxGeometry relative="1" as="geometry" />
        </mxCell>
        <mxCell id="SheLjhUKQ4-WKlLZxXz--41" value="&lt;font style=&quot;font-size: 15px;&quot;&gt;seat_id&lt;/font&gt;" style="rounded=1;whiteSpace=wrap;html=1;arcSize=60;fontFamily=Helvetica;fontSize=11;fontColor=default;fontStyle=5" parent="1" vertex="1">
          <mxGeometry x="2830" y="1140" width="120" height="60" as="geometry" />
        </mxCell>
        <mxCell id="hOqGwdR3IB_KNojTuP-n-5" style="edgeStyle=orthogonalEdgeStyle;rounded=0;orthogonalLoop=1;jettySize=auto;html=1;exitX=0.5;exitY=1;exitDx=0;exitDy=0;endArrow=none;endFill=0;" parent="1" source="SheLjhUKQ4-WKlLZxXz--42" target="YOeL28a4dyn9BFeRwTe--5" edge="1">
          <mxGeometry relative="1" as="geometry">
            <Array as="points">
              <mxPoint x="3180" y="1410" />
              <mxPoint x="2890" y="1410" />
            </Array>
          </mxGeometry>
        </mxCell>
        <mxCell id="SheLjhUKQ4-WKlLZxXz--42" value="&lt;font style=&quot;font-size: 15px;&quot;&gt;seat_no&lt;/font&gt;" style="rounded=1;whiteSpace=wrap;html=1;arcSize=60;fontFamily=Helvetica;fontSize=11;fontColor=default;fontStyle=1" parent="1" vertex="1">
          <mxGeometry x="3120" y="1140" width="120" height="60" as="geometry" />
        </mxCell>
        <mxCell id="hOqGwdR3IB_KNojTuP-n-9" style="edgeStyle=orthogonalEdgeStyle;shape=connector;rounded=0;orthogonalLoop=1;jettySize=auto;html=1;exitX=0.5;exitY=1;exitDx=0;exitDy=0;labelBackgroundColor=default;strokeColor=default;align=center;verticalAlign=middle;fontFamily=Helvetica;fontSize=11;fontColor=default;endArrow=none;endFill=0;" parent="1" source="SheLjhUKQ4-WKlLZxXz--47" target="YOeL28a4dyn9BFeRwTe--62" edge="1">
          <mxGeometry relative="1" as="geometry">
            <Array as="points">
              <mxPoint x="3340" y="1480" />
              <mxPoint x="3120" y="1480" />
            </Array>
          </mxGeometry>
        </mxCell>
        <mxCell id="SheLjhUKQ4-WKlLZxXz--47" value="&lt;font style=&quot;font-size: 15px;&quot;&gt;dist_id&lt;/font&gt;" style="rounded=1;whiteSpace=wrap;html=1;arcSize=60;fontFamily=Helvetica;fontSize=11;fontColor=default;fontStyle=5" parent="1" vertex="1">
          <mxGeometry x="3280" y="1130" width="120" height="60" as="geometry" />
        </mxCell>
        <mxCell id="hOqGwdR3IB_KNojTuP-n-8" style="edgeStyle=orthogonalEdgeStyle;shape=connector;rounded=0;orthogonalLoop=1;jettySize=auto;html=1;exitX=0.5;exitY=1;exitDx=0;exitDy=0;entryX=0.5;entryY=0;entryDx=0;entryDy=0;labelBackgroundColor=default;strokeColor=default;align=center;verticalAlign=middle;fontFamily=Helvetica;fontSize=11;fontColor=default;endArrow=none;endFill=0;" parent="1" source="SheLjhUKQ4-WKlLZxXz--48" target="YOeL28a4dyn9BFeRwTe--62" edge="1">
          <mxGeometry relative="1" as="geometry">
            <Array as="points">
              <mxPoint x="3470" y="1480" />
              <mxPoint x="3120" y="1480" />
            </Array>
          </mxGeometry>
        </mxCell>
        <mxCell id="SheLjhUKQ4-WKlLZxXz--48" value="&lt;font style=&quot;font-size: 15px;&quot;&gt;dist_name&lt;/font&gt;" style="rounded=1;whiteSpace=wrap;html=1;arcSize=60;fontFamily=Helvetica;fontSize=11;fontColor=default;fontStyle=1" parent="1" vertex="1">
          <mxGeometry x="3410" y="1130" width="120" height="60" as="geometry" />
        </mxCell>
        <mxCell id="SheLjhUKQ4-WKlLZxXz--68" style="edgeStyle=orthogonalEdgeStyle;shape=connector;rounded=0;orthogonalLoop=1;jettySize=auto;html=1;labelBackgroundColor=default;strokeColor=default;align=center;verticalAlign=middle;fontFamily=Helvetica;fontSize=11;fontColor=default;endArrow=none;endFill=0;fontStyle=1" parent="1" source="SheLjhUKQ4-WKlLZxXz--52" target="YOeL28a4dyn9BFeRwTe--4" edge="1">
          <mxGeometry relative="1" as="geometry" />
        </mxCell>
        <mxCell id="SheLjhUKQ4-WKlLZxXz--52" value="&lt;font style=&quot;font-size: 15px;&quot;&gt;schedule_id&lt;/font&gt;" style="rounded=1;whiteSpace=wrap;html=1;arcSize=60;fontFamily=Helvetica;fontSize=11;fontColor=default;fontStyle=5" parent="1" vertex="1">
          <mxGeometry x="3195" y="1560" width="120" height="60" as="geometry" />
        </mxCell>
        <mxCell id="SheLjhUKQ4-WKlLZxXz--60" style="edgeStyle=orthogonalEdgeStyle;shape=connector;rounded=0;orthogonalLoop=1;jettySize=auto;html=1;exitX=0.5;exitY=1;exitDx=0;exitDy=0;labelBackgroundColor=default;strokeColor=default;align=center;verticalAlign=middle;fontFamily=Helvetica;fontSize=11;fontColor=default;endArrow=none;endFill=0;fontStyle=1" parent="1" source="SheLjhUKQ4-WKlLZxXz--53" target="YOeL28a4dyn9BFeRwTe--4" edge="1">
          <mxGeometry relative="1" as="geometry" />
        </mxCell>
        <mxCell id="SheLjhUKQ4-WKlLZxXz--53" value="&lt;font style=&quot;font-size: 15px;&quot;&gt;departure_time&lt;/font&gt;" style="rounded=1;whiteSpace=wrap;html=1;arcSize=60;fontFamily=Helvetica;fontSize=11;fontColor=default;fontStyle=1" parent="1" vertex="1">
          <mxGeometry x="3325" y="1560" width="120" height="60" as="geometry" />
        </mxCell>
        <mxCell id="SheLjhUKQ4-WKlLZxXz--61" style="edgeStyle=orthogonalEdgeStyle;shape=connector;rounded=0;orthogonalLoop=1;jettySize=auto;html=1;exitX=0.5;exitY=1;exitDx=0;exitDy=0;labelBackgroundColor=default;strokeColor=default;align=center;verticalAlign=middle;fontFamily=Helvetica;fontSize=11;fontColor=default;endArrow=none;endFill=0;fontStyle=1" parent="1" source="SheLjhUKQ4-WKlLZxXz--54" edge="1">
          <mxGeometry relative="1" as="geometry">
            <mxPoint x="3390" y="1860" as="targetPoint" />
          </mxGeometry>
        </mxCell>
        <mxCell id="SheLjhUKQ4-WKlLZxXz--54" value="&lt;font style=&quot;font-size: 15px;&quot;&gt;arrival_time&lt;/font&gt;" style="rounded=1;whiteSpace=wrap;html=1;arcSize=60;fontFamily=Helvetica;fontSize=11;fontColor=default;fontStyle=1" parent="1" vertex="1">
          <mxGeometry x="3465" y="1560" width="120" height="60" as="geometry" />
        </mxCell>
        <mxCell id="SheLjhUKQ4-WKlLZxXz--70" style="edgeStyle=orthogonalEdgeStyle;shape=connector;rounded=0;orthogonalLoop=1;jettySize=auto;html=1;exitX=1;exitY=0.5;exitDx=0;exitDy=0;entryX=0.5;entryY=1;entryDx=0;entryDy=0;labelBackgroundColor=default;strokeColor=default;align=center;verticalAlign=middle;fontFamily=Helvetica;fontSize=11;fontColor=default;endArrow=none;endFill=0;fontStyle=1" parent="1" source="SheLjhUKQ4-WKlLZxXz--69" target="YOeL28a4dyn9BFeRwTe--63" edge="1">
          <mxGeometry relative="1" as="geometry" />
        </mxCell>
        <mxCell id="SheLjhUKQ4-WKlLZxXz--69" value="&lt;font style=&quot;font-size: 15px;&quot;&gt;fare&lt;/font&gt;" style="rounded=1;whiteSpace=wrap;html=1;arcSize=60;fontFamily=Helvetica;fontSize=11;fontColor=default;fontStyle=1" parent="1" vertex="1">
          <mxGeometry x="2910" y="2100" width="120" height="60" as="geometry" />
        </mxCell>
        <mxCell id="SheLjhUKQ4-WKlLZxXz--82" style="edgeStyle=orthogonalEdgeStyle;shape=connector;rounded=0;orthogonalLoop=1;jettySize=auto;html=1;exitX=1;exitY=0.5;exitDx=0;exitDy=0;entryX=0.5;entryY=0;entryDx=0;entryDy=0;labelBackgroundColor=default;strokeColor=default;align=center;verticalAlign=middle;fontFamily=Helvetica;fontSize=11;fontColor=default;endArrow=none;endFill=0;fontStyle=1" parent="1" source="SheLjhUKQ4-WKlLZxXz--74" target="IpfHq9KAUWF6J69-SZQJ-1" edge="1">
          <mxGeometry relative="1" as="geometry" />
        </mxCell>
        <mxCell id="SheLjhUKQ4-WKlLZxXz--74" value="&lt;u&gt;&lt;font style=&quot;font-size: 15px;&quot;&gt;review_id&lt;/font&gt;&lt;/u&gt;" style="rounded=1;whiteSpace=wrap;html=1;arcSize=60;fontFamily=Helvetica;fontSize=11;fontColor=default;fontStyle=1" parent="1" vertex="1">
          <mxGeometry x="1470" y="1250" width="120" height="60" as="geometry" />
        </mxCell>
        <mxCell id="SheLjhUKQ4-WKlLZxXz--83" style="edgeStyle=orthogonalEdgeStyle;shape=connector;rounded=0;orthogonalLoop=1;jettySize=auto;html=1;exitX=1;exitY=0.5;exitDx=0;exitDy=0;labelBackgroundColor=default;strokeColor=default;align=center;verticalAlign=middle;fontFamily=Helvetica;fontSize=11;fontColor=default;endArrow=none;endFill=0;fontStyle=1" parent="1" source="SheLjhUKQ4-WKlLZxXz--75" target="IpfHq9KAUWF6J69-SZQJ-1" edge="1">
          <mxGeometry relative="1" as="geometry" />
        </mxCell>
        <mxCell id="SheLjhUKQ4-WKlLZxXz--75" value="&lt;font style=&quot;font-size: 15px;&quot;&gt;review_point&lt;/font&gt;" style="rounded=1;whiteSpace=wrap;html=1;arcSize=60;fontFamily=Helvetica;fontSize=11;fontColor=default;fontStyle=1" parent="1" vertex="1">
          <mxGeometry x="1470" y="1330" width="120" height="60" as="geometry" />
        </mxCell>
        <mxCell id="SheLjhUKQ4-WKlLZxXz--84" style="edgeStyle=orthogonalEdgeStyle;shape=connector;rounded=0;orthogonalLoop=1;jettySize=auto;html=1;exitX=1;exitY=0.5;exitDx=0;exitDy=0;labelBackgroundColor=default;strokeColor=default;align=center;verticalAlign=middle;fontFamily=Helvetica;fontSize=11;fontColor=default;endArrow=none;endFill=0;fontStyle=1" parent="1" source="SheLjhUKQ4-WKlLZxXz--76" target="IpfHq9KAUWF6J69-SZQJ-1" edge="1">
          <mxGeometry relative="1" as="geometry" />
        </mxCell>
        <mxCell id="SheLjhUKQ4-WKlLZxXz--76" value="&lt;font style=&quot;font-size: 15px;&quot;&gt;review_text&lt;/font&gt;" style="rounded=1;whiteSpace=wrap;html=1;arcSize=60;fontFamily=Helvetica;fontSize=11;fontColor=default;fontStyle=1" parent="1" vertex="1">
          <mxGeometry x="1470" y="1410" width="120" height="60" as="geometry" />
        </mxCell>
        <mxCell id="SheLjhUKQ4-WKlLZxXz--85" style="edgeStyle=orthogonalEdgeStyle;shape=connector;rounded=0;orthogonalLoop=1;jettySize=auto;html=1;exitX=1;exitY=0.5;exitDx=0;exitDy=0;labelBackgroundColor=default;strokeColor=default;align=center;verticalAlign=middle;fontFamily=Helvetica;fontSize=11;fontColor=default;endArrow=none;endFill=0;fontStyle=1" parent="1" source="SheLjhUKQ4-WKlLZxXz--77" target="IpfHq9KAUWF6J69-SZQJ-1" edge="1">
          <mxGeometry relative="1" as="geometry" />
        </mxCell>
        <mxCell id="SheLjhUKQ4-WKlLZxXz--77" value="&lt;font style=&quot;font-size: 15px;&quot;&gt;review_date&lt;/font&gt;" style="rounded=1;whiteSpace=wrap;html=1;arcSize=60;fontFamily=Helvetica;fontSize=11;fontColor=default;fontStyle=1" parent="1" vertex="1">
          <mxGeometry x="1470" y="1490" width="120" height="60" as="geometry" />
        </mxCell>
        <mxCell id="hOqGwdR3IB_KNojTuP-n-12" style="edgeStyle=orthogonalEdgeStyle;shape=connector;rounded=0;orthogonalLoop=1;jettySize=auto;html=1;exitX=0.5;exitY=1;exitDx=0;exitDy=0;labelBackgroundColor=default;strokeColor=default;align=center;verticalAlign=middle;fontFamily=Helvetica;fontSize=11;fontColor=default;endArrow=none;endFill=0;" parent="1" source="SheLjhUKQ4-WKlLZxXz--78" target="IpfHq9KAUWF6J69-SZQJ-4" edge="1">
          <mxGeometry relative="1" as="geometry">
            <Array as="points">
              <mxPoint x="2160" y="1350" />
              <mxPoint x="2245" y="1350" />
            </Array>
          </mxGeometry>
        </mxCell>
        <mxCell id="SheLjhUKQ4-WKlLZxXz--78" value="&lt;font style=&quot;font-size: 15px;&quot;&gt;review_id&lt;/font&gt;" style="rounded=1;whiteSpace=wrap;html=1;arcSize=60;fontFamily=Helvetica;fontSize=11;fontColor=default;fontStyle=5" parent="1" vertex="1">
          <mxGeometry x="2110" y="1270" width="120" height="60" as="geometry" />
        </mxCell>
        <mxCell id="hOqGwdR3IB_KNojTuP-n-11" style="edgeStyle=orthogonalEdgeStyle;shape=connector;rounded=0;orthogonalLoop=1;jettySize=auto;html=1;exitX=0.5;exitY=1;exitDx=0;exitDy=0;labelBackgroundColor=default;strokeColor=default;align=center;verticalAlign=middle;fontFamily=Helvetica;fontSize=11;fontColor=default;endArrow=none;endFill=0;" parent="1" source="SheLjhUKQ4-WKlLZxXz--79" target="IpfHq9KAUWF6J69-SZQJ-4" edge="1">
          <mxGeometry relative="1" as="geometry">
            <Array as="points">
              <mxPoint x="2340" y="1350" />
              <mxPoint x="2245" y="1350" />
            </Array>
          </mxGeometry>
        </mxCell>
        <mxCell id="SheLjhUKQ4-WKlLZxXz--79" value="&lt;font style=&quot;font-size: 15px;&quot;&gt;review_point&lt;/font&gt;" style="rounded=1;whiteSpace=wrap;html=1;arcSize=60;fontFamily=Helvetica;fontSize=11;fontColor=default;fontStyle=1" parent="1" vertex="1">
          <mxGeometry x="2280" y="1270" width="120" height="60" as="geometry" />
        </mxCell>
        <mxCell id="hOqGwdR3IB_KNojTuP-n-10" style="edgeStyle=orthogonalEdgeStyle;shape=connector;rounded=0;orthogonalLoop=1;jettySize=auto;html=1;exitX=0.5;exitY=1;exitDx=0;exitDy=0;labelBackgroundColor=default;strokeColor=default;align=center;verticalAlign=middle;fontFamily=Helvetica;fontSize=11;fontColor=default;endArrow=none;endFill=0;" parent="1" source="SheLjhUKQ4-WKlLZxXz--80" target="IpfHq9KAUWF6J69-SZQJ-4" edge="1">
          <mxGeometry relative="1" as="geometry">
            <Array as="points">
              <mxPoint x="2340" y="1500" />
              <mxPoint x="2245" y="1500" />
            </Array>
          </mxGeometry>
        </mxCell>
        <mxCell id="SheLjhUKQ4-WKlLZxXz--80" value="&lt;font style=&quot;font-size: 15px;&quot;&gt;review_text&lt;/font&gt;" style="rounded=1;whiteSpace=wrap;html=1;arcSize=60;fontFamily=Helvetica;fontSize=11;fontColor=default;fontStyle=1" parent="1" vertex="1">
          <mxGeometry x="2280" y="1390" width="120" height="60" as="geometry" />
        </mxCell>
        <mxCell id="SheLjhUKQ4-WKlLZxXz--81" value="&lt;font style=&quot;font-size: 15px;&quot;&gt;review_date&lt;/font&gt;" style="rounded=1;whiteSpace=wrap;html=1;arcSize=60;fontFamily=Helvetica;fontSize=11;fontColor=default;fontStyle=1" parent="1" vertex="1">
          <mxGeometry x="2110" y="1390" width="120" height="60" as="geometry" />
        </mxCell>
        <mxCell id="hOqGwdR3IB_KNojTuP-n-4" style="edgeStyle=orthogonalEdgeStyle;rounded=0;orthogonalLoop=1;jettySize=auto;html=1;exitX=0.5;exitY=1;exitDx=0;exitDy=0;entryX=0.5;entryY=0;entryDx=0;entryDy=0;endArrow=none;endFill=0;" parent="1" source="hOqGwdR3IB_KNojTuP-n-3" target="YOeL28a4dyn9BFeRwTe--3" edge="1">
          <mxGeometry relative="1" as="geometry">
            <Array as="points">
              <mxPoint x="2550" y="1470" />
              <mxPoint x="2480" y="1470" />
            </Array>
          </mxGeometry>
        </mxCell>
        <mxCell id="hOqGwdR3IB_KNojTuP-n-3" value="&lt;font style=&quot;font-size: 15px;&quot;&gt;total_seat&lt;/font&gt;" style="rounded=1;whiteSpace=wrap;html=1;arcSize=60;fontFamily=Helvetica;fontSize=11;fontColor=default;fontStyle=5;dashed=1;" parent="1" vertex="1">
          <mxGeometry x="2490" y="1260" width="120" height="60" as="geometry" />
        </mxCell>
        <mxCell id="hOqGwdR3IB_KNojTuP-n-7" style="edgeStyle=orthogonalEdgeStyle;shape=connector;rounded=0;orthogonalLoop=1;jettySize=auto;html=1;exitX=0.5;exitY=1;exitDx=0;exitDy=0;labelBackgroundColor=default;strokeColor=default;align=center;verticalAlign=middle;fontFamily=Helvetica;fontSize=11;fontColor=default;endArrow=none;endFill=0;" parent="1" source="hOqGwdR3IB_KNojTuP-n-6" target="YOeL28a4dyn9BFeRwTe--5" edge="1">
          <mxGeometry relative="1" as="geometry">
            <Array as="points">
              <mxPoint x="3030" y="1350" />
              <mxPoint x="2890" y="1350" />
            </Array>
          </mxGeometry>
        </mxCell>
        <mxCell id="hOqGwdR3IB_KNojTuP-n-6" value="&lt;font style=&quot;font-size: 15px;&quot;&gt;available&lt;/font&gt;" style="rounded=1;whiteSpace=wrap;html=1;arcSize=60;fontFamily=Helvetica;fontSize=11;fontColor=default;fontStyle=1" parent="1" vertex="1">
          <mxGeometry x="2970" y="1140" width="120" height="60" as="geometry" />
        </mxCell>
        <mxCell id="hOqGwdR3IB_KNojTuP-n-15" style="edgeStyle=orthogonalEdgeStyle;shape=connector;rounded=0;orthogonalLoop=1;jettySize=auto;html=1;exitX=0.5;exitY=1;exitDx=0;exitDy=0;labelBackgroundColor=default;strokeColor=default;align=center;verticalAlign=middle;fontFamily=Helvetica;fontSize=11;fontColor=default;endArrow=none;endFill=0;" parent="1" source="hOqGwdR3IB_KNojTuP-n-13" target="YOeL28a4dyn9BFeRwTe--1" edge="1">
          <mxGeometry relative="1" as="geometry">
            <Array as="points">
              <mxPoint x="1950" y="1530" />
              <mxPoint x="2000" y="1530" />
            </Array>
          </mxGeometry>
        </mxCell>
        <mxCell id="hOqGwdR3IB_KNojTuP-n-13" value="&lt;font style=&quot;font-size: 15px;&quot;&gt;address&lt;/font&gt;" style="rounded=1;whiteSpace=wrap;html=1;arcSize=60;fontFamily=Helvetica;fontSize=11;fontColor=default;fontStyle=1" parent="1" vertex="1">
          <mxGeometry x="1890" y="1450" width="120" height="60" as="geometry" />
        </mxCell>
        <mxCell id="hOqGwdR3IB_KNojTuP-n-27" value="&lt;font style=&quot;font-size: 15px;&quot;&gt;phone&lt;/font&gt;" style="rounded=1;whiteSpace=wrap;html=1;arcSize=60;fontFamily=Helvetica;fontSize=11;fontColor=default;fontStyle=1" parent="1" vertex="1">
          <mxGeometry x="2110" y="1150" width="120" height="60" as="geometry" />
        </mxCell>
        <mxCell id="syEBDBhTTKM-WJqhAVIK-3" style="edgeStyle=orthogonalEdgeStyle;rounded=0;orthogonalLoop=1;jettySize=auto;html=1;endArrow=none;endFill=0;" edge="1" parent="1" source="syEBDBhTTKM-WJqhAVIK-1" target="YOeL28a4dyn9BFeRwTe--5">
          <mxGeometry relative="1" as="geometry" />
        </mxCell>
        <mxCell id="syEBDBhTTKM-WJqhAVIK-4" value="&lt;font style=&quot;font-size: 30px;&quot;&gt;N&lt;/font&gt;" style="edgeLabel;html=1;align=center;verticalAlign=middle;resizable=0;points=[];fontStyle=1" vertex="1" connectable="0" parent="syEBDBhTTKM-WJqhAVIK-3">
          <mxGeometry x="-0.6721" relative="1" as="geometry">
            <mxPoint as="offset" />
          </mxGeometry>
        </mxCell>
        <mxCell id="syEBDBhTTKM-WJqhAVIK-1" value="&lt;font style=&quot;font-size: 26px;&quot;&gt;&lt;span&gt;contain&lt;/span&gt;&lt;/font&gt;" style="rhombus;whiteSpace=wrap;html=1;fontStyle=1" vertex="1" parent="1">
          <mxGeometry x="2620" y="1930" width="130" height="120" as="geometry" />
        </mxCell>
      </root>
    </mxGraphModel>
  </diagram>
</mxfile>
